<?xml version="1.0" encoding="UTF-8"?>
<svg version="1.1" xmlns="http://www.w3.org/2000/svg" width="102" height="102">
<path d="M0 0 C33.66 0 67.32 0 102 0 C102 33.66 102 67.32 102 102 C68.34 102 34.68 102 0 102 C0 68.34 0 34.68 0 0 Z " fill="#B8843E" transform="translate(0,0)"/>
<path d="M0 0 C5.74744858 -0.07426628 11.4946166 -0.12865726 17.24243164 -0.16479492 C19.19690823 -0.17986301 21.15135112 -0.20032124 23.10571289 -0.22631836 C25.91821623 -0.26278865 28.73027174 -0.27974622 31.54296875 -0.29296875 C32.41398727 -0.30845261 33.2850058 -0.32393646 34.18241882 -0.33988953 C38.94374702 -0.34120448 42.16453489 -0.14765034 46 3 C49.510231 8.2653465 48.49927742 14.87425008 48 21 C46.37324115 27.64088266 41.55420883 32.26250002 36 36 C30.09304624 39.20578395 25.20581323 39.37402931 18.5625 39.1875 C17.64017578 39.17396484 16.71785156 39.16042969 15.76757812 39.14648438 C13.51109617 39.11140953 11.25586774 39.06226387 9 39 C8.94593994 39.56195068 8.89187988 40.12390137 8.83618164 40.70288086 C8.09021795 47.97240012 6.59446256 54.85958069 5 62 C-1.27 62 -7.54 62 -14 62 C-13.42364428 54.57518214 -12.12800162 47.65174526 -10.3125 40.4375 C-9.77314286 38.24746838 -9.23408994 36.05736181 -8.6953125 33.8671875 C-8.41719727 32.74538086 -8.13908203 31.62357422 -7.85253906 30.46777344 C-6.98607377 26.94335392 -6.14173696 23.41432707 -5.3046875 19.8828125 C-5.03358154 18.74013916 -4.76247559 17.59746582 -4.4831543 16.42016602 C-3.96003343 14.21259274 -3.43802806 12.00475477 -2.91723633 9.79663086 C-2.68029053 8.80284424 -2.44334473 7.80905762 -2.19921875 6.78515625 C-1.99127686 5.90738525 -1.78333496 5.02961426 -1.5690918 4.12524414 C-1 2 -1 2 0 0 Z " fill="#FDFBFA" transform="translate(34,20)"/>
<path d="M0 0 C4.29 0 8.58 0 13 0 C13.25 8.625 13.25 8.625 11 12 C7.9609375 12.29296875 7.9609375 12.29296875 4.375 12.1875 C3.18648437 12.16042969 1.99796875 12.13335937 0.7734375 12.10546875 C-0.14179687 12.07066406 -1.05703125 12.03585938 -2 12 C-1.51775271 7.86645178 -1.01114519 4.04458076 0 0 Z " fill="#B88338" transform="translate(49,33)"/>
</svg>
